<?xml version="1.0" standalone="no"?>
<!DOCTYPE svg PUBLIC "-//W3C//DTD SVG 20010904//EN"
 "http://www.w3.org/TR/2001/REC-SVG-20010904/DTD/svg10.dtd">
<svg version="1.0" xmlns="http://www.w3.org/2000/svg"
 width="800.000000pt" height="800.000000pt" viewBox="0 0 800.000000 800.000000"
 preserveAspectRatio="xMidYMid meet">
<metadata>
Created by potrace 1.14, written by Peter Selinger 2001-2017
</metadata>
<g transform="translate(0.000000,800.000000) scale(0.100000,-0.100000)"
fill="#000000" stroke="none">
<path d="M3545 7885 c-22 -8 -56 -32 -76 -54 -20 -23 -46 -41 -57 -41 -10 0
-31 -9 -45 -20 -14 -11 -34 -20 -45 -20 -10 0 -31 -9 -45 -20 -27 -21 -47 -26
-47 -11 0 5 21 28 48 50 l47 42 -45 -27 c-25 -15 -57 -36 -72 -47 -15 -11 -34
-17 -42 -14 -9 4 -16 2 -16 -2 0 -5 6 -11 13 -14 6 -3 -12 -3 -42 -1 -37 3
-60 11 -71 24 -19 22 -61 40 -95 40 -28 0 -43 -30 -20 -42 24 -14 18 -31 -7
-24 -32 10 -197 12 -230 3 -33 -9 -35 -24 -9 -80 24 -53 18 -93 -16 -102 -16
-4 -23 -11 -19 -20 5 -14 1 -16 -21 -15 -5 1 -7 10 -5 20 2 14 -3 20 -15 20
-10 0 -29 3 -43 6 -20 4 -18 1 10 -14 37 -21 40 -29 18 -44 -13 -10 44 -4 91
9 17 4 22 3 17 -5 -4 -7 -18 -12 -30 -12 -13 0 -28 -6 -35 -13 -8 -11 -5 -13
19 -9 17 2 47 1 67 -3 32 -6 35 -8 18 -15 -23 -9 -52 -40 -46 -49 8 -10 -81
-72 -94 -67 -7 2 -18 -1 -24 -7 -6 -6 -11 -8 -11 -4 0 4 -21 -7 -47 -23 -26
-17 -51 -30 -56 -30 -5 0 -38 -25 -73 -55 -36 -30 -71 -55 -78 -55 -15 0 -53
-41 -88 -95 -14 -22 -37 -52 -51 -67 -14 -15 -28 -37 -32 -49 -4 -11 -17 -36
-30 -54 -61 -91 -155 -317 -155 -375 0 -17 -6 -44 -14 -58 -13 -26 -19 -43
-54 -141 -9 -25 -31 -67 -49 -95 -18 -28 -33 -56 -33 -62 0 -7 -5 -14 -11 -16
-6 -2 4 -33 26 -76 31 -61 37 -85 41 -155 3 -56 9 -85 19 -93 23 -17 34 -58
44 -162 5 -53 17 -114 25 -134 9 -21 16 -48 16 -62 0 -22 -5 -25 -52 -30 -50
-5 -317 -15 -598 -22 l-125 -3 3 -44 c1 -24 16 -106 32 -183 78 -380 141 -676
156 -739 9 -38 19 -88 23 -110 l6 -40 73 3 c84 5 87 0 42 -71 -17 -26 -30 -58
-30 -71 0 -27 -28 -43 -36 -21 -4 8 -4 21 -1 29 8 21 -12 24 -65 10 l-48 -12
-10 36 c-12 45 -53 232 -164 762 -100 471 -108 504 -121 505 -15 0 -18 -80 -5
-133 31 -126 50 -268 41 -307 -5 -22 -9 -32 -10 -22 -1 15 -4 15 -21 5 -16
-11 -22 -10 -33 6 -10 13 -20 17 -33 12 -11 -4 -14 -10 -8 -14 16 -10 13 -42
-3 -42 -7 0 -13 -10 -13 -23 0 -13 -3 -27 -6 -30 -18 -18 -24 -302 -12 -532
10 -185 9 -175 21 -175 6 0 7 -3 4 -7 -4 -4 11 -13 34 -21 32 -11 44 -11 53
-1 8 9 6 10 -13 6 -15 -4 -20 -2 -14 4 14 14 113 -11 113 -28 0 -8 12 -13 30
-13 17 0 30 5 30 11 0 6 7 3 16 -5 8 -9 33 -19 55 -22 21 -4 39 -10 39 -15 0
-5 -5 -9 -10 -9 -6 0 -3 -11 5 -24 13 -19 13 -25 3 -29 -8 -3 -5 -6 7 -7 17
-2 16 -3 -5 -9 -21 -6 -24 -12 -22 -36 2 -17 12 -36 23 -44 28 -20 28 -22 -26
-146 -34 -79 -74 -185 -89 -235 -15 -52 -32 -72 -298 -345 -155 -159 -291
-293 -303 -297 -11 -3 -47 -14 -80 -24 -70 -20 -117 -59 -150 -124 -13 -25
-39 -65 -58 -89 -35 -44 -35 -45 -95 -42 -66 3 -99 -13 -178 -83 l-44 -39 0
-791 c0 -852 2 -891 53 -1041 57 -166 154 -313 284 -429 l42 -37 38 25 c21 14
43 26 50 26 7 0 13 7 13 16 0 14 2 14 16 3 14 -11 18 -11 29 4 7 9 20 17 29
17 9 0 16 5 16 10 0 14 33 46 67 64 17 9 22 15 12 16 -18 0 -22 31 -5 42 6 4
21 5 33 1 14 -3 23 -1 23 6 0 6 -5 11 -11 11 -7 0 -1 10 12 22 14 13 26 28 27
33 5 20 57 83 136 165 29 30 81 89 116 130 35 41 75 87 89 101 14 14 51 54 81
89 86 101 160 170 180 170 10 0 21 4 24 9 4 5 34 25 69 45 34 19 90 57 125 85
67 55 77 59 86 36 7 -20 -8 -58 -39 -99 -14 -18 -25 -36 -25 -39 0 -9 -106
-165 -139 -204 -14 -17 -39 -50 -56 -74 -42 -58 -137 -173 -202 -243 -31 -33
-72 -80 -92 -106 -30 -39 -175 -207 -282 -327 -16 -18 -29 -37 -29 -43 0 -5
-4 -10 -10 -10 -5 0 -10 -11 -10 -24 0 -14 -5 -28 -11 -31 -5 -4 -8 -12 -6
-18 2 -7 -7 -22 -20 -34 -31 -30 -29 -38 15 -51 148 -43 37 -42 3277 -42 3318
0 3146 -3 3310 53 320 109 561 370 653 704 l26 98 4 785 c2 432 0 805 -3 829
-4 27 -16 52 -30 65 -21 20 -22 26 -14 69 5 27 8 51 7 55 -1 4 8 27 20 52 18
37 22 64 22 150 0 94 -3 113 -30 181 -33 81 -105 174 -135 174 -11 0 -22 12
-28 30 -6 16 -18 38 -29 49 -18 20 -24 78 -12 121 5 20 11 21 100 17 82 -4 94
-2 94 12 0 19 11 21 28 4 9 -9 12 110 12 538 0 327 -4 543 -9 535 -5 -8 -8
-23 -6 -33 2 -11 -3 -22 -12 -25 -14 -6 -14 -8 3 -20 17 -12 17 -13 -4 -13
-14 0 -22 -6 -22 -16 0 -10 -6 -14 -15 -10 -11 4 -15 -2 -15 -25 0 -17 -6 -32
-15 -35 -8 -4 -15 -14 -15 -23 0 -9 -4 -21 -9 -26 -5 -6 -11 -21 -13 -34 -1
-14 -9 -26 -17 -29 -8 -3 -11 0 -7 7 10 16 -3 14 -20 -3 -16 -16 -19 -46 -5
-46 5 0 11 5 13 12 6 17 28 0 28 -23 0 -10 5 -19 10 -19 6 0 10 -6 10 -14 0
-7 7 -19 15 -26 8 -7 15 -20 15 -30 0 -24 -43 -31 -94 -16 -39 11 -422 12
-453 1 -21 -7 -15 -23 15 -38 90 -46 300 -160 315 -172 17 -12 18 -22 12 -89
l-7 -76 -35 -6 c-54 -10 -168 5 -241 32 -36 14 -120 37 -187 51 -66 14 -138
34 -160 45 -22 11 -83 31 -135 45 -52 13 -122 33 -155 44 -33 11 -69 22 -80
24 -54 11 -161 39 -167 45 -4 3 -1 32 7 65 7 33 17 88 20 122 l7 61 -41 27
c-22 15 -41 32 -41 36 0 5 -146 9 -325 9 -179 0 -325 -4 -325 -8 0 -4 5 -13
12 -20 25 -25 -1 -21 -57 8 -31 16 -63 30 -71 30 -8 0 -17 7 -20 15 -4 8 -16
15 -29 15 -12 0 -28 7 -35 15 -7 8 -18 15 -25 15 -8 0 -26 6 -42 14 -56 29
-115 50 -246 89 -26 8 -49 12 -51 8 -2 -3 -9 -50 -16 -105 -17 -142 -64 -308
-105 -372 -7 -11 -24 -57 -39 -101 -22 -71 -36 -133 -77 -330 -4 -23 -15 -58
-24 -78 -8 -21 -15 -48 -15 -62 0 -13 -7 -34 -16 -48 -13 -19 -13 -31 -4 -67
6 -24 16 -59 21 -79 30 -118 -3 -210 -111 -312 -139 -131 -226 -181 -390 -223
-108 -27 -310 -25 -406 5 -75 23 -188 83 -177 94 3 4 0 7 -8 7 -8 0 -20 9 -27
20 -7 11 -8 20 -3 20 13 0 -13 50 -41 80 -13 14 -22 28 -21 32 2 5 -4 8 -12 8
-8 0 -15 4 -15 8 0 5 -14 23 -32 41 -40 41 -48 75 -16 66 23 -6 23 -6 3 9 -11
8 -25 19 -31 24 -6 5 -39 31 -75 58 -35 27 -68 54 -74 60 -5 6 -35 29 -65 49
-30 21 -67 50 -82 64 -41 40 -74 67 -115 92 -21 13 -50 36 -65 51 -15 16 -33
28 -40 28 -7 0 -24 16 -38 36 -13 20 -37 50 -52 66 -67 72 -125 147 -148 193
-14 27 -31 56 -38 63 -7 8 -20 28 -28 45 -9 17 -45 73 -80 124 -35 52 -64 95
-64 97 0 3 -16 28 -35 58 -20 29 -38 63 -41 75 -4 13 -10 20 -15 17 -5 -3 -9
2 -9 10 0 16 -5 30 -63 161 -41 93 -99 255 -121 335 -29 112 -46 189 -46 217
0 15 -7 51 -16 78 -17 56 -27 195 -14 195 5 0 10 -10 12 -22 2 -13 8 -21 13
-18 6 3 9 12 8 20 -12 90 -9 190 8 240 10 30 19 63 19 73 0 31 54 157 67 157
7 0 13 5 13 11 0 6 9 18 20 27 12 10 24 38 30 69 10 58 35 103 56 103 7 0 16
5 19 10 7 12 -20 42 -29 33 -3 -4 -6 -2 -6 4 0 6 9 13 20 16 11 3 20 11 20 19
0 7 14 21 32 31 18 10 28 21 22 25 -14 11 -16 42 -2 42 10 0 10 2 -1 9 -21 13
-6 28 36 36 50 9 56 14 42 31 -9 11 -6 14 17 14 27 1 28 1 10 15 -18 14 -18
15 8 25 15 5 32 10 37 10 5 0 9 5 9 10 0 6 11 15 24 20 13 5 27 18 31 29 3 12
14 21 23 21 11 0 18 9 18 25 1 15 -3 25 -12 25 -8 0 -14 5 -14 10 0 6 5 10 11
10 8 0 8 4 0 14 -9 11 -6 15 14 20 14 4 28 13 31 21 4 10 12 11 35 3 26 -9 33
-7 54 16 14 15 25 31 25 35 0 5 21 11 47 14 26 3 52 12 58 21 7 9 20 13 33 9
13 -3 22 -1 22 6 0 6 7 11 16 11 8 0 13 4 10 9 -3 5 8 11 24 15 17 3 30 12 30
19 0 7 8 13 18 13 9 -1 49 3 89 8 73 8 118 2 108 -15 -4 -5 -1 -9 4 -9 6 0 21
-10 33 -22 23 -23 88 -51 97 -42 3 3 -4 7 -16 10 -29 8 -36 31 -15 44 15 8 15
11 2 20 -8 5 -24 7 -35 4 -19 -5 -19 -4 -2 6 10 7 25 9 32 6 8 -3 18 1 22 8 9
16 101 27 109 14 3 -5 12 -7 20 -4 8 3 14 2 14 -2 0 -10 62 -44 69 -37 3 3 -1
11 -9 16 -11 7 5 9 52 7 74 -4 81 2 15 13 -40 8 -40 8 12 5 29 -2 56 -8 60
-13 7 -12 72 -23 65 -11 -3 4 9 8 26 8 17 0 29 -4 25 -9 -3 -6 11 -15 32 -20
52 -15 60 -14 37 5 -18 14 -18 15 6 8 14 -4 27 -11 28 -15 2 -5 15 -9 30 -9
14 0 33 -7 43 -16 9 -8 27 -17 40 -18 34 -5 59 -17 59 -28 0 -6 11 -19 25 -30
14 -11 25 -26 25 -34 0 -8 4 -13 8 -10 5 3 20 -18 35 -47 14 -29 35 -59 45
-68 11 -10 24 -23 28 -31 5 -8 20 -22 34 -31 13 -9 18 -17 11 -17 -7 0 10 -22
39 -49 34 -32 51 -55 47 -65 -4 -9 -1 -13 7 -10 7 3 21 -5 32 -17 l19 -22 -25
7 -25 7 25 -20 c14 -11 29 -21 35 -21 5 0 44 -37 87 -82 89 -94 104 -124 261
-493 27 -63 26 -62 37 -45 8 12 15 9 39 -18 17 -18 33 -47 36 -66 5 -26 15
-37 51 -54 26 -13 48 -32 54 -46 5 -13 14 -27 19 -31 6 -3 11 -13 11 -21 0
-18 33 -94 41 -94 9 0 -2 164 -12 175 -5 5 -9 30 -9 55 0 25 -5 51 -10 56 -6
6 -11 41 -11 77 -1 37 -5 65 -9 62 -5 -3 -14 4 -20 15 -7 13 -7 20 0 20 5 0
10 -6 10 -12 0 -7 5 -5 11 6 11 17 8 75 -8 177 -4 31 -2 37 16 42 29 7 34 -17
29 -146 -3 -99 -2 -105 20 -121 l23 -18 -7 51 c-6 43 -4 51 10 51 18 0 18 2
-3 120 -6 30 -15 82 -20 115 -14 89 -47 236 -60 269 -6 16 -18 106 -27 200
-11 122 -23 192 -40 244 -18 54 -22 77 -14 91 12 23 -1 100 -24 146 -19 38
-27 82 -31 170 -1 39 -5 80 -8 93 -9 35 -8 94 2 218 5 61 10 171 12 245 2 143
2 150 -5 246 l-4 62 36 7 c62 10 60 12 -10 13 -43 1 -70 -3 -74 -11 -13 -20
-1 -769 12 -790 3 -4 1 -8 -4 -8 -12 0 -93 97 -96 115 -1 8 -23 30 -49 50 -26
20 -47 39 -47 44 0 9 -65 41 -84 41 -7 0 -23 11 -36 25 -13 14 -20 25 -15 25
5 0 4 5 -3 12 -9 9 -7 17 10 35 16 17 18 23 7 24 -8 0 -6 4 6 9 13 6 15 9 5 9
-13 1 -13 2 0 11 11 7 1 9 -33 8 -26 0 -51 2 -54 6 -4 3 25 7 63 7 l69 2 -88
8 c-55 5 -98 14 -115 25 -36 23 -121 110 -100 102 22 -9 29 1 17 23 -7 14 -6
19 3 20 7 0 3 5 -10 11 -13 6 -21 17 -18 24 3 8 1 16 -4 19 -21 13 -10 35 18
36 20 1 22 2 7 6 -36 9 -41 23 -8 23 57 0 93 11 91 29 -2 11 5 17 22 19 14 2
45 9 70 17 25 8 68 14 95 13 106 -2 248 2 242 8 -3 3 -149 5 -324 3 -581 -5
-1180 0 -1208 11 -32 12 -31 12 -80 -5z m1045 -129 c0 -2 -9 -6 -20 -9 -11 -3
-18 -1 -14 4 5 9 34 13 34 5z m-3460 -2883 c0 -18 -4 -33 -10 -33 -5 0 -10 12
-10 26 0 14 -5 34 -11 46 -6 11 -8 32 -4 46 7 26 7 26 21 -13 7 -22 14 -55 14
-72z m1351 -423 c3 -27 0 -35 -13 -38 -16 -3 -18 5 -18 60 1 59 2 61 14 38 8
-14 16 -41 17 -60z m39 -29 c0 -6 -4 -13 -10 -16 -5 -3 -10 1 -10 9 0 9 5 16
10 16 6 0 10 -4 10 -9z m-1252 -223 c6 -1 12 -5 12 -10 0 -4 -22 -8 -50 -8
-27 0 -50 4 -50 9 0 6 -17 12 -37 14 -21 2 -4 3 37 1 41 -2 81 -5 88 -6z
m4052 -8 c0 -5 -2 -10 -4 -10 -3 0 -8 5 -11 10 -3 6 -1 10 4 10 6 0 11 -4 11
-10z m-3935 -90 c3 -5 -2 -10 -12 -10 -17 -1 -17 -2 1 -15 20 -15 20 -15 0
-15 -28 0 -35 9 -23 31 11 21 24 24 34 9z m6525 -50 c0 -5 -4 -10 -10 -10 -5
0 -10 5 -10 10 0 6 5 10 10 10 6 0 10 -4 10 -10z m-1610 -168 c0 -23 -19 -42
-42 -42 -22 0 -23 18 -1 42 21 23 43 23 43 0z m-90 -72 c0 -5 -4 -10 -10 -10
-5 0 -10 5 -10 10 0 6 5 10 10 10 6 0 10 -4 10 -10z m-35 -40 c3 -5 2 -10 -4
-10 -5 0 -13 5 -16 10 -3 6 -2 10 4 10 5 0 13 -4 16 -10z m1415 -147 c0 -36 0
-36 -18 -17 -15 15 -16 23 -8 37 17 27 26 20 26 -20z m107 -69 c18 -5 22 -11
17 -30 -4 -15 -2 -24 5 -24 11 0 15 13 11 40 -1 10 2 12 9 5 9 -9 16 -66 12
-103 -1 -17 -41 4 -41 22 0 8 -8 16 -17 20 -24 8 -105 54 -117 66 -11 11 84
14 121 4z m-83 -65 c-3 -5 -10 -7 -15 -3 -5 3 -7 10 -3 15 3 5 10 7 15 3 5 -3
7 -10 3 -15z m6 -50 c0 -10 -7 -19 -15 -19 -8 0 -15 7 -15 15 0 8 -6 15 -12
16 -7 0 -4 4 7 8 25 11 35 5 35 -20z m319 17 c-12 -10 -59 -15 -59 -6 0 5 14
10 32 10 17 0 29 -2 27 -4z m-159 -193 c0 -5 -5 -15 -10 -23 -8 -12 -10 -11
-10 8 0 12 5 22 10 22 6 0 10 -3 10 -7z m50 -97 l21 -38 -28 6 -28 7 22 -18
c14 -12 24 -33 27 -61 2 -24 7 -46 10 -49 3 -4 -2 -12 -12 -19 -13 -10 -14
-15 -5 -25 9 -9 6 -17 -12 -35 -13 -13 -26 -24 -29 -24 -9 0 2 70 13 84 9 11
9 16 0 21 -8 6 -8 10 2 16 7 4 15 22 17 39 3 28 1 31 -17 25 -25 -7 -50 30
-32 48 6 6 11 27 11 46 0 39 7 35 40 -23z m-45 -116 c-3 -5 -11 -10 -17 -10
-6 0 -17 -8 -25 -17 -10 -14 -13 -14 -11 -3 2 8 8 18 13 22 6 4 11 13 11 20 1
7 2 17 3 21 0 5 8 1 17 -7 8 -9 12 -20 9 -26z m35 -180 c0 -5 -2 -10 -4 -10
-3 0 -8 5 -11 10 -3 6 -1 10 4 10 6 0 11 -4 11 -10z m160 -107 c0 -7 -6 -13
-14 -13 -9 0 -12 8 -8 26 3 19 7 22 13 12 5 -7 9 -19 9 -25z m-293 -29 c-3 -3
-12 -4 -19 -1 -8 3 -5 6 6 6 11 1 17 -2 13 -5z m108 -84 c-3 -5 -10 -10 -16
-10 -5 0 -9 5 -9 10 0 6 7 10 16 10 8 0 12 -4 9 -10z m-540 -320 c3 -5 1 -10
-4 -10 -6 0 -11 5 -11 10 0 6 2 10 4 10 3 0 8 -4 11 -10z m175 -169 c0 -6 -4
-13 -10 -16 -5 -3 -10 1 -10 9 0 9 5 16 10 16 6 0 10 -4 10 -9z m-605 -501 c3
-5 1 -10 -4 -10 -6 0 -11 5 -11 10 0 6 2 10 4 10 3 0 8 -4 11 -10z m335 -130
c0 -5 -4 -10 -10 -10 -5 0 -10 5 -10 10 0 6 5 10 10 10 6 0 10 -4 10 -10z
m-5444 -940 c3 -59 1 -78 -5 -64 -12 28 -31 40 -31 20 0 -8 -12 -28 -26 -43
-14 -15 -33 -45 -42 -65 -9 -21 -20 -38 -24 -38 -11 0 -10 18 2 25 6 3 10 14
10 24 0 10 6 31 14 47 34 71 54 122 61 154 3 19 9 44 12 55 5 18 7 18 15 -5 6
-14 12 -63 14 -110z m34 -261 c0 -36 -4 -49 -12 -46 -7 2 -13 9 -12 15 1 7 2
28 3 47 2 55 21 41 21 -16z m30 -141 c0 -13 -7 -32 -15 -42 -14 -18 -15 -17
-15 22 0 31 4 42 15 42 9 0 15 -9 15 -22z"/>
<path d="M5845 7890 c-264 -4 -482 -9 -485 -11 -3 -2 310 -6 695 -10 385 -3
717 -10 737 -14 33 -6 38 -12 45 -44 4 -20 8 -125 8 -233 0 -109 2 -198 5
-198 7 0 3 -124 -4 -148 -4 -12 -1 -26 8 -35 12 -12 16 -49 18 -179 4 -211 20
-212 31 -1 4 87 10 164 12 171 3 9 86 12 362 13 197 1 392 5 433 9 42 4 -119
7 -361 6 l-436 -1 4 50 c2 28 8 75 13 105 5 30 12 155 16 277 6 215 7 221 28
227 11 3 126 6 255 6 l235 0 -23 -21 c-14 -14 -30 -19 -44 -15 -20 5 -20 4 -5
-8 10 -7 15 -16 11 -19 -3 -4 2 -9 11 -13 9 -3 13 -11 9 -18 -4 -6 -8 -20 -10
-31 -1 -11 1 -14 3 -7 3 6 12 12 19 12 7 0 15 -6 18 -12 3 -10 7 -10 20 1 15
11 18 11 24 -5 8 -18 26 -25 65 -25 9 0 22 -7 28 -15 10 -11 9 -15 -5 -21 -16
-6 -15 -8 6 -16 13 -5 38 -9 54 -8 26 2 32 -3 44 -31 7 -18 13 -37 12 -41 -1
-5 8 -6 19 -2 23 7 27 -11 6 -37 -9 -13 -16 -14 -24 -6 -11 11 -95 13 -145 2
-19 -4 -27 -11 -23 -20 3 -7 1 -16 -4 -19 -19 -12 -9 -20 27 -22 20 -1 40 -8
44 -15 6 -10 13 -8 29 10 19 20 39 27 64 23 4 -1 14 4 22 10 11 9 14 8 14 -5
0 -9 5 -16 10 -16 6 0 10 6 10 14 0 22 18 29 57 21 24 -4 32 -9 24 -14 -10 -6
-9 -10 3 -14 11 -4 16 -1 16 10 0 52 -207 266 -330 341 l-84 52 -556 -2 c-305
-1 -771 -5 -1035 -8z m1785 -191 c10 -17 14 -18 27 -7 14 11 15 11 11 -2 -3
-9 -17 -15 -34 -15 -23 0 -29 4 -29 23 0 28 11 28 25 1z m97 -86 c-15 -16 -17
-16 -17 -1 0 9 6 18 13 21 20 7 22 -2 4 -20z"/>
<path d="M7328 7833 c6 -2 18 -2 25 0 6 3 1 5 -13 5 -14 0 -19 -2 -12 -5z"/>
<path d="M4775 7780 c-3 -5 -1 -10 4 -10 6 0 11 5 11 10 0 6 -2 10 -4 10 -3 0
-8 -4 -11 -10z"/>
<path d="M7335 7750 c3 -5 8 -10 11 -10 2 0 4 5 4 10 0 6 -5 10 -11 10 -5 0
-7 -4 -4 -10z"/>
<path d="M7361 7714 c0 -11 3 -14 6 -6 3 7 2 16 -1 19 -3 4 -6 -2 -5 -13z"/>
<path d="M7646 7642 c-7 -11 4 -52 14 -52 10 0 10 49 -1 55 -4 3 -10 2 -13 -3z"/>
<path d="M7488 7528 c5 -5 16 -8 23 -6 8 3 3 7 -10 11 -17 4 -21 3 -13 -5z"/>
<path d="M7437 7509 c4 -14 1 -18 -10 -13 -8 3 -18 1 -22 -5 -12 -20 27 -25
41 -6 18 24 18 32 0 38 -10 4 -12 0 -9 -14z"/>
<path d="M7760 7510 c0 -5 4 -10 9 -10 6 0 13 5 16 10 3 6 -1 10 -9 10 -9 0
-16 -4 -16 -10z"/>
<path d="M7487 7503 c-12 -11 -8 -23 8 -23 8 0 15 7 15 15 0 16 -12 20 -23 8z"/>
<path d="M7878 7213 c17 -2 47 -2 65 0 17 2 3 4 -33 4 -36 0 -50 -2 -32 -4z"/>
<path d="M6693 7203 c26 -2 67 -2 90 0 23 2 2 3 -48 3 -49 0 -68 -1 -42 -3z"/>
<path d="M7812 7050 c-1 -102 2 -160 8 -160 5 0 10 24 10 53 0 30 3 102 7 160
5 88 4 107 -8 107 -11 0 -14 -31 -17 -160z"/>
<path d="M7295 6858 c-198 -4 -375 -12 -394 -18 -22 -6 -39 -6 -46 0 -8 7
-135 7 -356 0 -189 -5 -382 -10 -428 -10 -46 0 -81 -3 -78 -7 4 -3 201 -5 437
-4 l430 2 0 -165 c0 -91 4 -166 8 -166 5 0 12 53 15 118 4 64 10 138 13 164
l6 46 137 7 c75 5 322 8 548 9 386 1 413 2 413 18 0 21 -48 21 -705 6z"/>
<path d="M3730 6545 c0 -8 5 -15 10 -15 6 0 10 7 10 15 0 8 -4 15 -10 15 -5 0
-10 -7 -10 -15z"/>
<path d="M461 6081 c-7 -5 -10 -18 -7 -32 3 -13 13 -132 21 -264 22 -339 32
-456 39 -463 4 -3 12 0 18 6 9 9 7 69 -5 249 -10 131 -20 297 -24 370 -6 131
-13 152 -42 134z"/>
<path d="M1777 5782 c-11 -100 4 -268 23 -257 11 7 3 222 -9 285 -7 32 -8 30
-14 -28z"/>
<path d="M7585 5819 c-636 -13 -647 -15 -97 -17 449 -2 512 0 512 13 0 8 -1
14 -2 13 -2 0 -187 -5 -413 -9z"/>
<path d="M3987 5552 c-15 -9 -30 -25 -33 -34 -3 -10 -12 -18 -20 -18 -8 0 -14
-4 -14 -10 0 -14 5 -13 52 11 30 16 37 23 27 29 -10 7 -5 13 21 24 24 10 29
15 15 15 -11 0 -32 -7 -48 -17z"/>
<path d="M762 5380 c0 -14 2 -19 5 -12 2 6 2 18 0 25 -3 6 -5 1 -5 -13z"/>
<path d="M761 5330 c-1 -36 28 -563 39 -710 5 -69 12 -194 16 -278 4 -84 11
-155 16 -158 5 -3 16 0 24 7 13 11 15 31 10 124 -8 137 -14 209 -26 305 -5 41
-16 176 -25 300 -13 193 -52 485 -54 410z"/>
<path d="M2605 5270 c-27 -21 -62 -51 -76 -66 -28 -31 -46 -74 -31 -74 5 0 7
-12 4 -27 -4 -23 -3 -26 9 -17 8 6 29 12 48 12 19 0 53 10 75 21 23 11 85 32
140 46 81 21 122 25 232 25 74 0 134 4 134 8 0 5 -23 19 -50 31 -28 13 -47 27
-44 32 3 6 -14 10 -43 9 -80 -1 -286 16 -318 27 -27 9 -35 6 -80 -27z"/>
<path d="M4220 5290 c-12 -8 -9 -10 12 -10 15 0 30 5 33 10 8 13 -25 13 -45 0z"/>
<path d="M4358 5293 c6 -2 18 -2 25 0 6 3 1 5 -13 5 -14 0 -19 -2 -12 -5z"/>
<path d="M4241 5248 c-32 -31 -45 -38 -53 -30 -9 9 -9 15 0 24 7 7 12 17 12
24 0 15 -61 0 -96 -23 l-23 -15 32 -35 c18 -19 36 -41 40 -49 10 -17 47 -18
82 -2 25 11 34 28 15 28 -18 0 -11 26 14 49 23 21 25 22 29 4 3 -10 5 1 6 25
0 23 -3 42 -8 42 -5 0 -27 -19 -50 -42z"/>
<path d="M4010 5185 c-20 -24 -6 -28 15 -5 10 11 13 20 8 20 -6 0 -16 -7 -23
-15z"/>
<path d="M7069 4973 c0 -54 -8 -152 -17 -218 -16 -110 -19 -120 -43 -134 -14
-8 -34 -11 -44 -7 -16 6 -17 15 -12 84 4 42 16 127 27 187 34 183 34 165 0
165 l-30 0 -1 -72 c0 -40 -5 -100 -9 -133 -12 -80 -31 -495 -24 -518 5 -16 7
-16 27 -2 12 8 30 15 40 15 11 0 17 5 14 13 -8 20 11 133 33 194 l20 58 -1
-140 c-1 -77 2 -150 6 -162 7 -21 4 -23 -28 -23 -20 0 -39 -4 -42 -10 -7 -11
71 -63 87 -58 7 3 13 47 15 119 8 292 25 706 29 722 4 13 -1 17 -20 17 l-26 0
-1 -97z m-81 -456 c-6 -38 -28 -31 -28 8 0 33 2 36 15 25 9 -7 15 -22 13 -33z"/>
<path d="M5375 5040 c-3 -5 3 -10 15 -10 12 0 18 5 15 10 -3 6 -10 10 -15 10
-5 0 -12 -4 -15 -10z"/>
<path d="M5342 4963 c-14 -37 -18 -61 -12 -67 7 -7 10 -4 10 7 0 9 4 17 9 17
12 0 40 71 34 87 -10 24 -20 13 -41 -44z"/>
<path d="M2972 4989 c-35 -4 -87 -17 -117 -27 -41 -15 -52 -16 -48 -6 14 36
-67 -16 -85 -54 -25 -53 -11 -76 71 -112 40 -18 51 -19 63 -9 13 11 14 15 2
23 -15 12 -17 30 -5 42 4 4 7 15 7 25 0 18 46 79 60 79 5 0 11 -13 15 -30 7
-34 67 -90 95 -90 69 0 114 71 94 148 -7 25 -33 27 -152 11z m95 -47 c-25 -24
-47 -23 -47 2 0 16 40 35 58 28 10 -3 7 -12 -11 -30z"/>
<path d="M3234 4992 c9 -15 48 -23 43 -9 -2 7 -14 14 -26 15 -13 2 -21 -1 -17
-6z"/>
<path d="M941 4854 c0 -11 3 -14 6 -6 3 7 2 16 -1 19 -3 4 -6 -2 -5 -13z"/>
<path d="M7647 4843 c-2 -1 -81 -3 -177 -5 -157 -3 -175 -5 -178 -20 -3 -17
16 -18 285 -20 158 -1 318 -2 355 -2 l68 -1 0 28 0 29 -176 -3 c-96 -2 -176
-5 -177 -6z"/>
<path d="M0 4217 c0 -407 2 -487 14 -487 17 0 38 24 29 33 -3 4 1 7 10 7 8 0
17 -6 19 -12 3 -9 12 -8 31 5 21 13 27 26 27 52 0 18 4 44 9 57 6 17 5 29 -5
43 -8 10 -14 42 -14 69 0 28 -7 83 -16 121 -9 39 -20 111 -24 160 -4 50 -12
101 -18 115 -5 14 -12 66 -16 115 -7 94 -24 183 -38 200 -4 5 -8 -210 -8 -478z
m70 -167 c0 -11 -4 -20 -10 -20 -5 0 -10 9 -10 20 0 11 5 20 10 20 6 0 10 -9
10 -20z"/>
<path d="M724 4387 c1 -16 -4 -21 -17 -19 -9 2 -20 -4 -23 -12 -3 -9 -10 -14
-14 -11 -4 3 -13 -9 -20 -25 -7 -17 -15 -28 -18 -25 -11 10 -30 -16 -25 -35 5
-17 0 -20 -28 -20 -26 0 -30 -3 -19 -10 12 -8 13 -12 2 -19 -8 -4 -12 -12 -11
-17 2 -5 -8 -11 -22 -14 -13 -3 -24 -11 -25 -17 -2 -29 -5 -34 -16 -32 -33 4
-41 -1 -28 -16 9 -10 9 -15 1 -15 -6 0 -11 -7 -11 -15 0 -8 -8 -15 -17 -15
-15 0 -16 -2 -3 -10 13 -9 13 -10 0 -11 -8 -1 -18 -1 -22 0 -5 0 -8 -3 -8 -9
0 -5 -8 -10 -18 -10 -10 0 -34 -12 -53 -26 -19 -14 -49 -32 -66 -39 -18 -8
-33 -17 -33 -20 0 -3 5 -3 10 0 5 3 10 1 10 -4 0 -6 7 -11 16 -11 8 0 13 4 10
9 -4 5 12 12 34 16 22 4 44 13 48 21 7 13 138 64 166 64 8 0 16 6 19 14 3 8
24 17 46 21 21 3 42 12 44 19 3 7 24 18 48 26 24 7 51 20 60 27 8 7 20 13 26
13 6 0 9 17 6 43 -7 63 -10 108 -12 149 -1 25 -7 41 -19 47 -15 8 -18 6 -18
-12z m-27 -59 c-3 -8 -6 -5 -6 6 -1 11 2 17 5 13 3 -3 4 -12 1 -19z m9 -26
c-10 -2 -22 0 -28 6 -6 6 0 7 19 4 21 -5 23 -7 9 -10z"/>
<path d="M688 4393 c7 -3 16 -2 19 1 4 3 -2 6 -13 5 -11 0 -14 -3 -6 -6z"/>
<path d="M880 4375 c0 -14 5 -25 10 -25 6 0 10 11 10 25 0 14 -4 25 -10 25 -5
0 -10 -11 -10 -25z"/>
<path d="M7620 4371 c0 -5 -19 -7 -42 -4 -29 4 -39 3 -34 -5 4 -7 1 -12 -7
-12 -21 0 -47 -33 -47 -61 -1 -53 5 -74 24 -77 14 -3 17 0 13 11 -5 13 7 17
59 23 36 3 85 4 110 0 27 -3 44 -2 44 5 0 21 -33 59 -54 60 -12 1 -7 5 14 9
l35 7 -30 2 -30 2 25 12 25 11 -30 4 c-16 2 -31 -1 -33 -7 -6 -19 -22 -12 -22
9 0 11 -4 20 -10 20 -5 0 -10 -4 -10 -9z"/>
<path d="M3535 4290 c3 -5 22 -10 41 -10 21 0 33 4 29 10 -3 6 -22 10 -41 10
-21 0 -33 -4 -29 -10z"/>
<path d="M555 4279 c-10 -15 3 -25 16 -12 7 7 7 13 1 17 -6 3 -14 1 -17 -5z"/>
<path d="M7288 4217 c-12 -29 -10 -83 3 -70 6 6 9 28 7 49 -2 29 -5 34 -10 21z"/>
<path d="M510 4210 c0 -5 5 -10 10 -10 6 0 10 5 10 10 0 6 -4 10 -10 10 -5 0
-10 -4 -10 -10z"/>
<path d="M3675 3800 c-33 -11 -70 -20 -82 -20 -13 0 -23 -4 -23 -10 0 -16 51
-24 85 -11 17 6 44 11 59 11 15 0 37 5 49 12 12 6 40 13 62 16 21 2 46 7 55
12 31 19 -143 10 -205 -10z"/>
<path d="M7790 3321 c0 -6 5 -13 10 -16 6 -3 10 1 10 9 0 9 -4 16 -10 16 -5 0
-10 -4 -10 -9z"/>
<path d="M3735 3050 c3 -5 8 -10 11 -10 2 0 4 5 4 10 0 6 -5 10 -11 10 -5 0
-7 -4 -4 -10z"/>
<path d="M3960 3031 c0 -13 28 -22 35 -11 4 6 15 10 26 10 13 0 19 -7 19 -24
0 -18 7 -25 26 -29 16 -3 28 0 31 10 3 8 13 11 24 8 12 -4 19 -2 19 6 0 7 -3
9 -7 6 -3 -4 -12 2 -20 13 -12 17 -26 20 -84 20 -38 0 -69 -4 -69 -9z"/>
<path d="M100 2955 c-25 -13 -57 -26 -72 -30 -16 -4 -28 -13 -28 -22 0 -19 51
-9 63 13 4 8 14 14 21 14 6 0 27 11 46 25 42 31 30 31 -30 0z"/>
<path d="M785 550 c-16 -7 -17 -9 -3 -9 9 -1 20 4 23 9 7 11 7 11 -20 0z"/>
</g>
</svg>
